<mxfile host="app.diagrams.net" modified="2024-04-17T07:49:05.822Z" agent="Mozilla/5.0 (Windows NT 10.0; Win64; x64) AppleWebKit/537.36 (KHTML, like Gecko) Chrome/112.0.0.0 Safari/537.36" version="24.2.5" etag="94ysWoRRq4YNhUZF7UXk" type="github">
  <diagram name="PÃ¡gina-1" id="3CDOtYI1Qp9-kgjukxTh">
    <mxGraphModel>
      <root>
        <mxCell id="0" />
        <mxCell id="1" parent="0" />
      </root>
    </mxGraphModel>
  </diagram>
</mxfile>
